# xmcd
#
# Track frame offsets:
#	150
#	14820
#	26991
#	38567
#	53077
#	65395
#	80176
#	89532
#	99747
#	109806
#	126224
#	138527
#	152646
#	168142
#	181219
#	195377
#	211970
#	224066
#	239082
#	253036
#	271980
#	284342
#	293872
#	302953
#	313476
#	324745
#	331761
#	343384
#
# Disc length: 4788 seconds
# Revision: 0
# Processed by: cddbd v1.5.2PL0 Copyright (c) Steve Scherf et al.
# Submitted via: dBpowerAMP V12.0
#
DISCID=c012b21c
DTITLE=Slim Dusty - Kilometres Are Still Miles To Me
DYEAR=1999
DGENRE=Country
TTITLE0=Hello And Goodbye
TTITLE1=Travelling Through
TTITLE2=I Want A Pardon For Daddy
TTITLE3=Mother Queen Of My Heart
TTITLE4=Eumeralla Shore
TTITLE5=Music My Dad Played To Me
TTITLE6=You Took The Joy Out Of Living
TTITLE7=Ive Been Talking To Grannie
TTITLE8=Many Mothers
TTITLE9=My Son
TTITLE10=Sweet Thang
TTITLE11=The Sunset Years Of Life
TTITLE12=Death Row
TTITLE13=Kilometres Are Still Miles To Me
TTITLE14=Larrikins Landing
TTITLE15=Mad Joe The Fisherman
TTITLE16=Another Night In Broome
TTITLE17=Morning Comes Early
TTITLE18=I Need To Find A Place
TTITLE19=Mitchell Grass
TTITLE20=Leaving Only Dust
TTITLE21=Quicksilver
TTITLE22=Santas Gonna Come In A Mail Coach 
TTITLE23=Santa Looked A Lot Like Daddy
TTITLE24=Send Back My Daddy For Christmas
TTITLE25=Just Rolling
TTITLE26=Nobody Heard
TTITLE27=Never Never
EXTD=
EXTT0=
EXTT1=
EXTT2=
EXTT3=
EXTT4=
EXTT5=
EXTT6=
EXTT7=
EXTT8=
EXTT9=
EXTT10=
EXTT11=
EXTT12=
EXTT13=
EXTT14=
EXTT15=
EXTT16=
EXTT17=
EXTT18=
EXTT19=
EXTT20=
EXTT21=
EXTT22=
EXTT23=
EXTT24=
EXTT25=
EXTT26=
EXTT27=
PLAYORDER=
